<svg width="36" height="30" viewBox="0 0 36 30" fill="none" xmlns="http://www.w3.org/2000/svg">
<path d="M33.0264 6.37411L24.4362 1.42827C23.1435 0.68016 21.545 0.68016 20.2523 1.42827L11.6621 6.37411C10.3694 7.12223 9.5632 8.49376 9.5632 9.98998V10.8212C9.0767 10.1147 8.4095 9.44968 7.5894 8.89553C6.2272 7.96732 4.7121 7.53784 3.4194 7.62097C3.7391 8.95094 4.7399 10.3363 6.2272 11.3477C6.5886 11.5832 6.95 11.791 7.3253 11.9711C6.4635 12.0542 5.5878 12.262 4.6982 12.5807C2.5854 13.3703 0.9174 14.7003 0 16.1965C1.7236 16.8892 4.0588 16.8892 6.3662 16.0303C7.6172 15.5731 8.7014 14.9081 9.5771 14.1462V19.854C9.5771 21.3502 10.3694 22.7217 11.676 23.4698L20.2662 28.4157C21.5589 29.1638 23.1574 29.1638 24.4501 28.4157L26.3683 27.3074L31.0387 29.9535C31.1638 30.0227 31.3028 30.0089 31.414 29.9535C31.5252 29.8842 31.5947 29.7734 31.5947 29.6348L31.553 24.3288L33.0264 23.4837C34.3191 22.7356 35.1253 21.364 35.1253 19.8678V9.97613C35.1253 8.49376 34.333 7.12223 33.0264 6.37411ZM22.3512 20.4358C11.5787 20.4358 11.5092 13.8968 11.6343 12.3867C11.6482 12.2343 11.8011 12.1235 11.954 12.165C15.9711 13.4396 22.3512 13.3149 22.3512 13.3149C22.3512 13.3149 28.7313 13.4396 32.7484 12.165C32.9013 12.1235 33.0542 12.2205 33.0681 12.3867C33.1932 13.8968 33.1237 20.4358 22.3512 20.4358Z" fill="black"/>
<path d="M33.0264 6.37411L24.4362 1.42827C23.1435 0.68016 21.545 0.68016 20.2523 1.42827L11.6621 6.37411C10.3694 7.12223 9.5632 8.49376 9.5632 9.98998V10.8212C9.0767 10.1147 8.4095 9.44968 7.5894 8.89553C6.2272 7.96732 4.7121 7.53784 3.4194 7.62097C3.7391 8.95094 4.7399 10.3363 6.2272 11.3477C6.5886 11.5832 6.95 11.791 7.3253 11.9711C6.4635 12.0542 5.5878 12.262 4.6982 12.5807C2.5854 13.3703 0.9174 14.7003 0 16.1965C1.7236 16.8892 4.0588 16.8892 6.3662 16.0303C7.6172 15.5731 8.7014 14.9081 9.5771 14.1462V19.854C9.5771 21.3502 10.3694 22.7217 11.676 23.4698L20.2662 28.4157C21.5589 29.1638 23.1574 29.1638 24.4501 28.4157L26.3683 27.3074L31.0387 29.9535C31.1638 30.0227 31.3028 30.0089 31.414 29.9535C31.5252 29.8842 31.5947 29.7734 31.5947 29.6348L31.553 24.3288L33.0264 23.4837C34.3191 22.7356 35.1253 21.364 35.1253 19.8678V9.97613C35.1253 8.49376 34.333 7.12223 33.0264 6.37411ZM22.3512 20.4358C11.5787 20.4358 11.5092 13.8968 11.6343 12.3867C11.6482 12.2343 11.8011 12.1235 11.954 12.165C15.9711 13.4396 22.3512 13.3149 22.3512 13.3149C22.3512 13.3149 28.7313 13.4396 32.7484 12.165C32.9013 12.1235 33.0542 12.2205 33.0681 12.3867C33.1932 13.8968 33.1237 20.4358 22.3512 20.4358Z" fill="url(#paint0_linear_19_4216)"/>
<path d="M33.0264 6.37411L24.4362 1.42827C23.1435 0.68016 21.545 0.68016 20.2523 1.42827L11.6621 6.37411C10.3694 7.12223 9.5632 8.49376 9.5632 9.98998V10.8212C9.0767 10.1147 8.4095 9.44968 7.5894 8.89553C6.2272 7.96732 4.7121 7.53784 3.4194 7.62097C3.7391 8.95094 4.7399 10.3363 6.2272 11.3477C6.5886 11.5832 6.95 11.791 7.3253 11.9711C6.4635 12.0542 5.5878 12.262 4.6982 12.5807C2.5854 13.3703 0.9174 14.7003 0 16.1965C1.7236 16.8892 4.0588 16.8892 6.3662 16.0303C7.6172 15.5731 8.7014 14.9081 9.5771 14.1462V19.854C9.5771 21.3502 10.3694 22.7217 11.676 23.4698L20.2662 28.4157C21.5589 29.1638 23.1574 29.1638 24.4501 28.4157L26.3683 27.3074L31.0387 29.9535C31.1638 30.0227 31.3028 30.0089 31.414 29.9535C31.5252 29.8842 31.5947 29.7734 31.5947 29.6348L31.553 24.3288L33.0264 23.4837C34.3191 22.7356 35.1253 21.364 35.1253 19.8678V9.97613C35.1253 8.49376 34.333 7.12223 33.0264 6.37411ZM22.3512 20.4358C11.5787 20.4358 11.5092 13.8968 11.6343 12.3867C11.6482 12.2343 11.8011 12.1235 11.954 12.165C15.9711 13.4396 22.3512 13.3149 22.3512 13.3149C22.3512 13.3149 28.7313 13.4396 32.7484 12.165C32.9013 12.1235 33.0542 12.2205 33.0681 12.3867C33.1932 13.8968 33.1237 20.4358 22.3512 20.4358Z" fill="#FF8D00"/>
<path d="M21.0723 15.8499C17.1386 15.8361 15.2204 14.6862 14.8451 14.4368C14.8173 14.423 14.7756 14.4368 14.7756 14.4784C14.7617 14.8663 14.8312 16.4318 17.0691 17.0552C19.9047 17.831 20.9333 16.2794 21.114 15.9331C21.1279 15.8915 21.1001 15.8499 21.0723 15.8499Z" fill="black"/>
<path d="M21.0723 15.8499C17.1386 15.8361 15.2204 14.6862 14.8451 14.4368C14.8173 14.423 14.7756 14.4368 14.7756 14.4784C14.7617 14.8663 14.8312 16.4318 17.0691 17.0552C19.9047 17.831 20.9333 16.2794 21.114 15.9331C21.1279 15.8915 21.1001 15.8499 21.0723 15.8499Z" fill="url(#paint1_linear_19_4216)"/>
<path d="M21.0723 15.8499C17.1386 15.8361 15.2204 14.6862 14.8451 14.4368C14.8173 14.423 14.7756 14.4368 14.7756 14.4784C14.7617 14.8663 14.8312 16.4318 17.0691 17.0552C19.9047 17.831 20.9333 16.2794 21.114 15.9331C21.1279 15.8915 21.1001 15.8499 21.0723 15.8499Z" fill="#FF8D00"/>
<path d="M29.3015 14.4373C28.9262 14.6866 27.008 15.8365 23.0743 15.8504C23.0326 15.8504 23.0187 15.8919 23.0326 15.9196C23.2272 16.266 24.2419 17.8315 27.0775 17.0418C29.3154 16.4184 29.3849 14.8529 29.371 14.465C29.371 14.4373 29.3293 14.4096 29.3015 14.4373Z" fill="black"/>
<path d="M29.3015 14.4373C28.9262 14.6866 27.008 15.8365 23.0743 15.8504C23.0326 15.8504 23.0187 15.8919 23.0326 15.9196C23.2272 16.266 24.2419 17.8315 27.0775 17.0418C29.3154 16.4184 29.3849 14.8529 29.371 14.465C29.371 14.4373 29.3293 14.4096 29.3015 14.4373Z" fill="url(#paint2_linear_19_4216)"/>
<path d="M29.3015 14.4373C28.9262 14.6866 27.008 15.8365 23.0743 15.8504C23.0326 15.8504 23.0187 15.8919 23.0326 15.9196C23.2272 16.266 24.2419 17.8315 27.0775 17.0418C29.3154 16.4184 29.3849 14.8529 29.371 14.465C29.371 14.4373 29.3293 14.4096 29.3015 14.4373Z" fill="#FF8D00"/>
<defs>
<linearGradient id="paint0_linear_19_4216" x1="39.0209" y1="-0.0718871" x2="-3.05268" y2="1.08219" gradientUnits="userSpaceOnUse">
<stop stop-color="#2D0E58"/>
<stop offset="1" stop-color="#B95FEE"/>
</linearGradient>
<linearGradient id="paint1_linear_19_4216" x1="21.8212" y1="14.3402" x2="14.237" y2="14.7258" gradientUnits="userSpaceOnUse">
<stop stop-color="#2D0E58"/>
<stop offset="1" stop-color="#B95FEE"/>
</linearGradient>
<linearGradient id="paint2_linear_19_4216" x1="30.0758" y1="14.3344" x2="22.4899" y2="14.7205" gradientUnits="userSpaceOnUse">
<stop stop-color="#2D0E58"/>
<stop offset="1" stop-color="#B95FEE"/>
</linearGradient>
</defs>
</svg>
